<svg xmlns="http://www.w3.org/2000/svg" xmlns:xlink="http://www.w3.org/1999/xlink" xml:space="preserve" style="shape-rendering:geometricPrecision;text-rendering:geometricPrecision;image-rendering:optimizeQuality;" viewBox="0 0 3.6404 3.9752625000000004" x="0px" y="0px" fill-rule="evenodd" clip-rule="evenodd"><defs><style type="text/css">.fil0 {fill:#BB4E30}
   
  </style></defs><g><path class="fil0" d="M3.6404 0c-0.0849083,0.241042 -0.169832,0.4821 -0.25474,0.723142 -0.885315,0.104247 -1.60736,0.336759 -2.18589,0.682048 0.592875,-0.227375 1.17393,-0.391688 1.73392,-0.443743 -0.0821717,0.238321 -0.164359,0.476627 -0.246531,0.714932 -1.0756,0.0648201 -1.76768,0.239223 -2.15301,0.501271 0.604646,-0.249313 1.17878,-0.305312 1.75034,-0.345137 -0.0739622,0.194476 -0.147909,0.388967 -0.221871,0.583442 -0.639503,-0.0932554 -1.20669,-0.057375 -1.69283,0.123265 0.39045,-0.0519784 0.895527,-0.107947 1.27495,-0.0170611 -0.0383417,0.120529 -0.124779,0.266986 -0.163136,0.387514 -0.506285,-0.133401 -0.86885,-0.147817 -1.22444,-0.00528957 -0.0301322,0.13149 -0.0298111,0.144332 -0.0599433,0.275822 -0.0657374,-0.00822482 -0.13149,-0.0164343 -0.197227,-0.0246592 0.472973,-2.09137 1.56293,-2.82438 3.6404,-3.15555z"/></g></svg>